<svg xmlns="http://www.w3.org/2000/svg" xmlns:xlink="http://www.w3.org/1999/xlink" version="1.1" x="0px" y="0px" width="100px" height="100px" viewBox="0 0 100 100" enable-background="new 0 0 100 100" xml:space="preserve">
<g id="Captions">
</g>
<g id="Your_Icon">
	<path d="M98.833,17.794C98.221,11.784,88.84-4.417,71.929,0.795c-10.843,3.341-19.148,8.861-24.38,14.49   C29.834,34.35,29.494,54.248,29.711,59.153c-5.599,4.361-10.819,8.63-14.525,12.076c-1.501-0.892-3.254-1.405-5.127-1.405   C4.504,69.824,0,74.327,0,79.882C0,85.438,4.504,89.94,10.059,89.94v0.001c0,5.556,4.504,10.059,10.06,10.059   c5.555,0,10.058-4.503,10.058-10.059c0-2.947-1.269-5.598-3.286-7.438c3.281-3.634,7.5-8.691,11.885-14.104   c4.785-0.118,28.763-1.27,44.574-12.482C93.928,48.413,100.273,31.907,98.833,17.794z M25.067,84.475   c0.861,1.159,1.375,2.593,1.375,4.148c0,3.856-3.127,6.984-6.984,6.984c-3.514,0-6.414-2.599-6.902-5.979   c1.084-0.278,2.321-0.732,3.231-1.332C12.324,88.317,10,85.962,10,85.962V85.96c-3-0.802-5.385-3.511-5.385-6.736   c0-3.857,3.016-6.983,6.873-6.983c0.816,0,1.542,0.147,2.271,0.405c2.326,0.405,2.139,1.236,2.139,1.236   c0.438,0.367,0.813,0.79,1.149,1.253l1.332-0.912c-0.38-0.557-0.817-1.074-1.299-1.542c3.521-3.439,8.612-7.885,14.008-12.417   c1.227,0.075,3.09,0.492,4.549,2.15c1.281,1.456,1.858,2.849,2.115,3.927c-4.737,5.748-9.336,11.197-12.669,14.855   c-0.107-0.062-0.219-0.118-0.329-0.175C24.817,82.759,25.067,84.475,25.067,84.475z M74.472,57.28   c-8.506,4.072-13.778,4.877-19.146,4.544c-5.371-0.33,16.288-2.4,32.444-18.694C87.77,43.13,82.979,53.207,74.472,57.28z"/>
</g>
</svg>