<svg xmlns="http://www.w3.org/2000/svg" xmlns:xlink="http://www.w3.org/1999/xlink" version="1.1" id="Your_Icon" x="0px" y="0px" width="100px" height="100px" viewBox="0 0 100 100" enable-background="new 0 0 100 100" xml:space="preserve">
<path fill-rule="evenodd" clip-rule="evenodd" stroke="#FFFFFF" stroke-miterlimit="3.8637" d="M27.413,40.174  c0.842,0.351,1.685,0.35,2.527,0.875c0.842,0.526,1.302,2.276,1.532,3.327c0.23,1.051-0.46,2.539-1.837,3.239  c-1.38,0.7-3.829,0.263-5.054,0.263c-1.225,0-2.602,0.526-4.056,0.526c-1.455,0-2.68-0.35-3.829-0.526  c-1.147-0.176-1.532-1.926-1.455-3.327c0.077-1.401,1.149-2.451,1.837-3.677c0.69-1.226,1.762-1.4,3.139-1.4  c1.379,0,3.292,0.086,3.292,0.086C23.816,39.647,26.571,39.824,27.413,40.174z M38.79,39.561c0,0-1.624-0.086-2.794-0.086  c-1.168,0-2.079,0.175-2.663,1.4c-0.584,1.226-1.495,2.276-1.56,3.677c-0.063,1.4,0.26,3.151,1.234,3.327  c0.976,0.176,2.016,0.526,3.25,0.526c1.234,0,2.403-0.526,3.442-0.526c1.04,0,3.118,0.438,4.289-0.263  c1.168-0.7,1.752-2.188,1.558-3.239c-0.195-1.051-0.584-2.801-1.3-3.327c-0.713-0.525-1.429-0.524-2.142-0.875  C41.387,39.824,39.048,39.647,38.79,39.561z M16.588,64.587c0,0-1.624-0.087-2.794-0.087c-1.168,0-2.079,0.175-2.663,1.4  c-0.584,1.226-1.495,2.276-1.56,3.677c-0.063,1.4,0.26,3.15,1.234,3.327c0.976,0.176,2.016,0.525,3.25,0.525  c1.234,0,2.403-0.525,3.442-0.525c1.04,0,3.118,0.438,4.289-0.263c1.168-0.701,1.752-2.188,1.558-3.239  c-0.194-1.051-0.584-2.802-1.3-3.327C21.33,65.55,20.614,65.551,19.9,65.2C19.185,64.85,16.846,64.674,16.588,64.587z M85.238,47.97  c0,0-1.624-0.087-2.792-0.087c-1.171,0-2.079,0.175-2.666,1.401c-0.584,1.226-1.494,2.276-1.558,3.676  c-0.065,1.4,0.258,3.151,1.234,3.327c0.974,0.176,2.013,0.525,3.247,0.525s2.402-0.525,3.441-0.525c1.042,0,3.121,0.438,4.289-0.263  c1.169-0.7,1.753-2.188,1.559-3.239c-0.195-1.051-0.585-2.801-1.298-3.327c-0.716-0.525-1.429-0.524-2.145-0.875  C87.835,48.232,85.498,48.056,85.238,47.97z M53.597,39.734c0,0-1.891-0.085-3.251-0.085s-2.419,0.171-3.102,1.374  c-0.68,1.201-1.738,2.231-1.813,3.604c-0.075,1.374,0.303,3.09,1.436,3.263c1.135,0.172,2.344,0.515,3.782,0.515  c1.436,0,2.796-0.515,4.007-0.515c1.208,0,3.629,0.428,4.99-0.258c1.36-0.686,2.041-2.144,1.813-3.175  c-0.226-1.03-0.681-2.747-1.511-3.261c-0.833-0.516-1.664-0.515-2.496-0.859C56.621,39.991,53.897,39.819,53.597,39.734z   M79.623,39.734c0,0-1.891-0.085-3.251-0.085c-1.361,0-2.419,0.171-3.1,1.374c-0.681,1.201-1.741,2.231-1.816,3.604  c-0.075,1.374,0.303,3.09,1.438,3.263c1.133,0.172,2.344,0.515,3.779,0.515c1.438,0,2.797-0.515,4.008-0.515s3.63,0.428,4.99-0.258  c1.363-0.686,2.044-2.144,1.816-3.175c-0.228-1.03-0.681-2.747-1.514-3.261c-0.83-0.516-1.663-0.515-2.494-0.859  C82.647,39.991,79.926,39.819,79.623,39.734z M33.647,47.921c0,0-2.189-0.087-3.766-0.087c-1.574,0-2.801,0.175-3.59,1.401  c-0.788,1.226-2.013,2.275-2.1,3.677c-0.089,1.4,0.35,3.15,1.664,3.327c1.312,0.176,2.714,0.525,4.378,0.525  s3.238-0.525,4.638-0.525c1.401,0,4.202,0.438,5.779-0.264c1.577-0.7,2.365-2.188,2.103-3.238C42.49,51.686,41.964,49.936,41,49.41  c-0.962-0.525-1.926-0.524-2.888-0.875C37.147,48.184,33.997,48.008,33.647,47.921z M52.072,56.678c0,0,2.187,0.087,3.763,0.087  c1.577,0,2.802-0.175,3.59-1.401c0.788-1.226,2.016-2.275,2.103-3.676c0.087-1.401-0.35-3.151-1.664-3.327  c-1.313-0.176-2.714-0.526-4.378-0.526c-1.663,0-3.237,0.526-4.641,0.526c-1.4,0-4.202-0.438-5.779,0.263  c-1.574,0.7-2.362,2.188-2.1,3.239c0.263,1.051,0.788,2.801,1.75,3.326c0.964,0.526,1.926,0.524,2.891,0.876  C48.569,56.415,51.72,56.591,52.072,56.678z M70.354,48.095c0,0-1.891-0.086-3.252-0.086c-1.36,0-2.419,0.171-3.102,1.374  c-0.681,1.201-1.738,2.231-1.813,3.604s0.303,3.09,1.436,3.262c1.136,0.173,2.344,0.516,3.782,0.516  c1.436,0,2.797-0.516,4.008-0.516c1.208,0,3.629,0.429,4.99-0.258c1.36-0.687,2.041-2.145,1.813-3.176  c-0.226-1.029-0.681-2.746-1.511-3.261c-0.833-0.517-1.664-0.515-2.497-0.859C73.378,48.352,70.654,48.18,70.354,48.095z   M66.623,39.561c0,0-1.225-0.086-2.104-0.086c-0.882,0-1.567,0.175-2.009,1.4c-0.44,1.226-1.126,2.276-1.175,3.677  c-0.047,1.4,0.197,3.151,0.932,3.327c0.734,0.176,1.518,0.526,2.446,0.526c0.932,0,1.812-0.526,2.596-0.526  c0.783,0,2.349,0.438,3.23-0.263s1.32-2.188,1.176-3.239c-0.148-1.051-0.441-2.801-0.979-3.327c-0.54-0.525-1.079-0.524-1.617-0.875  C68.58,39.824,66.817,39.647,66.623,39.561z M18.373,47.77c0,0-1.225-0.087-2.107-0.087c-0.88,0-1.565,0.175-2.006,1.401  s-1.126,2.275-1.175,3.677c-0.049,1.4,0.197,3.15,0.931,3.327c0.732,0.176,1.518,0.525,2.447,0.525s1.812-0.525,2.595-0.525  c0.784,0,2.349,0.438,3.231-0.264c0.88-0.7,1.321-2.188,1.173-3.238c-0.145-1.052-0.438-2.802-0.978-3.327  c-0.538-0.525-1.077-0.524-1.614-0.875C20.33,48.033,18.568,47.857,18.373,47.77z M86.58,64.988c0,0-1.223-0.087-2.104-0.087  c-0.88,0-1.565,0.175-2.006,1.4c-0.441,1.226-1.127,2.275-1.176,3.677c-0.049,1.4,0.194,3.15,0.929,3.326  c0.734,0.177,1.519,0.526,2.45,0.526c0.929,0,1.809-0.526,2.592-0.526c0.784,0,2.352,0.438,3.233-0.263  c0.88-0.7,1.321-2.188,1.173-3.238c-0.146-1.052-0.44-2.802-0.978-3.327c-0.54-0.525-1.077-0.524-1.617-0.875  C88.539,65.251,86.777,65.074,86.58,64.988z M23.509,56.214c0,0-1.913-0.087-3.292-0.087c-1.377,0-2.449,0.175-3.139,1.401  c-0.688,1.226-1.76,2.275-1.837,3.676c-0.078,1.401,0.307,3.151,1.455,3.327c1.149,0.176,2.374,0.525,3.829,0.525  c1.455,0,2.832-0.525,4.056-0.525c1.225,0,3.674,0.438,5.054-0.263c1.377-0.7,2.067-2.188,1.837-3.239  c-0.23-1.051-0.69-2.801-1.532-3.326s-1.685-0.524-2.527-0.875C26.571,56.477,23.816,56.301,23.509,56.214z M38.79,56.214  c0,0-1.624-0.087-2.794-0.087c-1.168,0-2.079,0.175-2.663,1.401c-0.584,1.226-1.495,2.275-1.56,3.676  c-0.063,1.401,0.26,3.151,1.234,3.327c0.976,0.176,2.016,0.525,3.25,0.525c1.234,0,2.403-0.525,3.442-0.525  c1.04,0,3.118,0.438,4.289-0.263c1.168-0.7,1.752-2.188,1.558-3.239c-0.195-1.051-0.584-2.801-1.3-3.326  c-0.713-0.525-1.429-0.524-2.142-0.875C41.387,56.477,39.048,56.301,38.79,56.214z M53.597,56.388c0,0-1.891-0.086-3.251-0.086  s-2.419,0.172-3.102,1.374c-0.68,1.201-1.738,2.231-1.813,3.604c-0.075,1.374,0.303,3.09,1.436,3.263  c1.135,0.173,2.344,0.515,3.782,0.515c1.436,0,2.796-0.515,4.007-0.515c1.208,0,3.629,0.429,4.99-0.258  c1.36-0.687,2.041-2.145,1.813-3.176c-0.226-1.03-0.681-2.746-1.511-3.262c-0.833-0.516-1.664-0.515-2.496-0.858  C56.621,56.645,53.897,56.473,53.597,56.388z M79.623,56.388c0,0-1.891-0.086-3.251-0.086c-1.361,0-2.419,0.172-3.1,1.374  c-0.681,1.201-1.741,2.231-1.816,3.604c-0.075,1.374,0.303,3.09,1.438,3.263c1.133,0.173,2.344,0.515,3.779,0.515  c1.438,0,2.797-0.515,4.008-0.515s3.63,0.429,4.99-0.258c1.363-0.687,2.044-2.145,1.816-3.176c-0.228-1.03-0.681-2.746-1.514-3.262  c-0.83-0.516-1.663-0.515-2.494-0.858C82.647,56.645,79.926,56.473,79.623,56.388z M66.623,56.214c0,0-1.225-0.087-2.104-0.087  c-0.882,0-1.567,0.175-2.009,1.401c-0.44,1.226-1.126,2.275-1.175,3.676c-0.047,1.401,0.197,3.151,0.932,3.327  s1.518,0.525,2.446,0.525c0.932,0,1.812-0.525,2.596-0.525c0.783,0,2.349,0.438,3.23-0.263s1.32-2.188,1.176-3.239  c-0.148-1.051-0.441-2.801-0.979-3.326c-0.54-0.525-1.079-0.524-1.617-0.875C68.58,56.477,66.817,56.301,66.623,56.214z   M32.755,64.54c0,0-2.189-0.087-3.766-0.087c-1.574,0-2.801,0.175-3.59,1.4c-0.788,1.226-2.013,2.276-2.1,3.677  c-0.089,1.4,0.35,3.15,1.664,3.327c1.312,0.176,2.714,0.525,4.378,0.525s3.238-0.525,4.638-0.525c1.401,0,4.202,0.438,5.779-0.263  c1.577-0.701,2.365-2.188,2.103-3.239c-0.263-1.051-0.789-2.802-1.753-3.327c-0.962-0.525-1.926-0.524-2.888-0.875  C36.256,64.803,33.105,64.627,32.755,64.54z M48.51,64.54c0,0-1.525-0.087-2.623-0.087s-1.952,0.175-2.503,1.4  c-0.549,1.226-1.403,2.276-1.464,3.677s0.244,3.15,1.159,3.327c0.915,0.176,1.894,0.525,3.053,0.525s2.257-0.525,3.233-0.525  s2.928,0.438,4.026-0.263c1.098-0.701,1.646-2.188,1.464-3.239s-0.549-2.802-1.22-3.327s-1.343-0.524-2.014-0.875  S48.754,64.627,48.51,64.54z M60.181,73.186c0,0,1.325,0.086,2.282,0.086c0.955,0,1.696-0.174,2.176-1.387  c0.479-1.215,1.22-2.254,1.273-3.641c0.052-1.388-0.211-3.12-1.009-3.294c-0.795-0.175-1.645-0.521-2.653-0.521  s-1.964,0.521-2.813,0.521s-2.548-0.434-3.503,0.26s-1.434,2.166-1.273,3.207c0.159,1.04,0.479,2.774,1.063,3.294  c0.584,0.521,1.166,0.52,1.75,0.867C58.057,72.925,59.967,73.099,60.181,73.186z M73.716,64.668c0,0-1.753-0.086-3.015-0.086  c-1.263,0-2.243,0.172-2.874,1.381c-0.632,1.207-1.612,2.243-1.683,3.622c-0.07,1.381,0.279,3.106,1.333,3.28  c1.051,0.173,2.172,0.518,3.503,0.518c1.332,0,2.595-0.518,3.716-0.518c1.122,0,3.364,0.431,4.627-0.259  c1.262-0.691,1.891-2.156,1.683-3.193c-0.212-1.035-0.632-2.761-1.403-3.278c-0.772-0.519-1.542-0.517-2.313-0.863  C76.52,64.927,73.995,64.753,73.716,64.668z M16.588,31.279c0,0-1.624-0.087-2.794-0.087c-1.168,0-2.079,0.175-2.663,1.4  c-0.584,1.226-1.495,2.276-1.56,3.677c-0.063,1.401,0.26,3.151,1.234,3.327c0.976,0.176,2.016,0.526,3.25,0.526  c1.234,0,2.403-0.526,3.442-0.526c1.04,0,3.118,0.438,4.289-0.263c1.168-0.7,1.752-2.188,1.558-3.239  c-0.194-1.051-0.584-2.801-1.3-3.327c-0.713-0.525-1.429-0.524-2.142-0.875C19.185,31.542,16.846,31.365,16.588,31.279z   M86.58,31.68c0,0-1.223-0.087-2.104-0.087c-0.88,0-1.565,0.175-2.006,1.401c-0.441,1.226-1.127,2.276-1.176,3.677  c-0.049,1.4,0.194,3.151,0.929,3.327c0.734,0.176,1.519,0.525,2.45,0.525c0.929,0,1.809-0.525,2.592-0.525  c0.784,0,2.352,0.438,3.233-0.263c0.88-0.7,1.321-2.188,1.173-3.239c-0.146-1.051-0.44-2.802-0.978-3.327  c-0.54-0.525-1.077-0.524-1.617-0.875C88.539,31.942,86.777,31.767,86.58,31.68z M32.755,31.231c0,0-2.189-0.086-3.766-0.086  c-1.574,0-2.801,0.175-3.59,1.4c-0.788,1.226-2.013,2.276-2.1,3.677c-0.089,1.4,0.35,3.151,1.664,3.327  c1.312,0.176,2.714,0.526,4.378,0.526s3.238-0.526,4.638-0.526c1.401,0,4.202,0.438,5.779-0.263c1.577-0.7,2.365-2.188,2.103-3.239  c-0.263-1.051-0.789-2.801-1.753-3.327c-0.962-0.525-1.926-0.524-2.888-0.875C36.256,31.495,33.105,31.318,32.755,31.231z   M48.51,31.231c0,0-1.525-0.086-2.623-0.086s-1.952,0.175-2.503,1.4c-0.549,1.226-1.403,2.276-1.464,3.677  c-0.061,1.4,0.244,3.151,1.159,3.327c0.915,0.176,1.894,0.526,3.053,0.526s2.257-0.526,3.233-0.526s2.928,0.438,4.026-0.263  c1.098-0.7,1.646-2.188,1.464-3.239s-0.549-2.801-1.22-3.327c-0.671-0.525-1.343-0.524-2.014-0.875S48.754,31.318,48.51,31.231z   M60.181,39.877c0,0,1.325,0.085,2.282,0.085c0.955,0,1.696-0.173,2.176-1.386c0.479-1.214,1.22-2.254,1.273-3.64  c0.052-1.388-0.211-3.121-1.009-3.294c-0.795-0.175-1.645-0.521-2.653-0.521s-1.964,0.521-2.813,0.521s-2.548-0.434-3.503,0.259  s-1.434,2.167-1.273,3.208c0.159,1.041,0.479,2.774,1.063,3.294c0.584,0.521,1.166,0.52,1.75,0.867  C58.057,39.617,59.967,39.791,60.181,39.877z M73.716,31.359c0,0-1.753-0.085-3.015-0.085c-1.263,0-2.243,0.172-2.874,1.381  c-0.632,1.207-1.612,2.243-1.683,3.623c-0.07,1.381,0.279,3.106,1.333,3.28c1.051,0.172,2.172,0.518,3.503,0.518  c1.332,0,2.595-0.518,3.716-0.518c1.122,0,3.364,0.431,4.627-0.259c1.262-0.691,1.891-2.156,1.683-3.193  c-0.212-1.035-0.632-2.761-1.403-3.278c-0.772-0.519-1.542-0.518-2.313-0.863C76.52,31.619,73.995,31.445,73.716,31.359z" fill="#000000"/>
</svg>